<?xml version="1.0" encoding="utf-8"?>
<!-- Generator: Adobe Illustrator 16.0.3, SVG Export Plug-In . SVG Version: 6.00 Build 0)  -->
<!DOCTYPE svg PUBLIC "-//W3C//DTD SVG 1.1//EN" "http://www.w3.org/Graphics/SVG/1.1/DTD/svg11.dtd">
<svg version="1.1" id="Capa_1" xmlns="http://www.w3.org/2000/svg" xmlns:xlink="http://www.w3.org/1999/xlink" x="0px" y="0px"
	 width="16px" height="16px" viewBox="0 0 16 16" enable-background="new 0 0 16 16" xml:space="preserve">
<g>
	<text transform="matrix(1 0 0 1 4.8643 13.5918)"><tspan x="0" y="0" font-family="'Montserrat-Medium'" font-size="0.8979">C</tspan><tspan x="0.63" y="0" font-family="'Montserrat-Medium'" font-size="0.8979">onociendo a</tspan></text>
	<text transform="matrix(1 0 0 1 7.0752 14.6699)"><tspan x="0" y="0" font-family="'Montserrat-Medium'" font-size="0.8979">L</tspan><tspan x="0.527" y="0" font-family="'Montserrat-Medium'" font-size="0.8979">oly</tspan></text>
	<path fill="#F9B233" d="M13.117,6.446c0,4.061-0.771,5.116-5.117,5.116c-4.346,0-5.117-1.056-5.117-5.116
		C2.884,3.62,3.655,1.329,8,1.329C12.381,1.329,13.117,3.62,13.117,6.446"/>
	<path fill="#DFF1FD" d="M11.776,6.246c0,3.057-0.53,3.021-3.737,3.021c-3.207,0-3.814,0.035-3.814-3.021
		c0-1.999,0.569-3.619,3.775-3.619C11.232,2.627,11.776,4.247,11.776,6.246"/>
	<path fill="#004C90" d="M6.214,10.09c0.035,0,0.063,0.028,0.063,0.063v0.003c0,0.034,0,0.063,0.001,0.063s0.021-0.021,0.043-0.047
		c0,0,0.034-0.04,0.083-0.067c0.048-0.026,0.104-0.04,0.166-0.04c0.061,0,0.115,0.012,0.165,0.035c0.05,0.023,0.08,0.07,0.08,0.07
		c0.019,0.029,0.052,0.031,0.075,0.005c0,0,0.025-0.03,0.074-0.063c0.048-0.031,0.105-0.048,0.172-0.048
		c0.05,0,0.097,0.006,0.14,0.019s0.08,0.032,0.111,0.059c0.03,0.027,0.054,0.063,0.071,0.106c0.017,0.043,0.021,0.094,0.021,0.094
		c0.002,0.035,0.005,0.092,0.005,0.126v0.511c0,0.035-0.028,0.063-0.063,0.063H7.286c-0.035,0-0.063-0.027-0.063-0.063v-0.413
		c0-0.034,0-0.091-0.001-0.125l-0.003-0.028c-0.002-0.028-0.009-0.053-0.02-0.073c-0.011-0.021-0.027-0.037-0.049-0.05
		S7.1,10.27,7.063,10.27c-0.037,0-0.066,0.008-0.089,0.021c-0.022,0.014-0.04,0.032-0.053,0.055
		c-0.013,0.023-0.021,0.049-0.025,0.078L6.89,10.452c-0.001,0.032-0.002,0.087-0.002,0.121v0.404c0,0.035-0.028,0.063-0.063,0.063
		H6.69c-0.035,0-0.063-0.027-0.063-0.063V10.57c0-0.035,0-0.089,0-0.12l-0.001-0.026c-0.001-0.028-0.006-0.054-0.016-0.077
		c-0.009-0.022-0.025-0.042-0.046-0.056C6.542,10.277,6.51,10.27,6.469,10.27c-0.013,0-0.029,0.003-0.049,0.008
		c-0.021,0.006-0.04,0.017-0.059,0.032c-0.019,0.015-0.035,0.037-0.048,0.065c-0.014,0.029-0.016,0.051-0.016,0.051
		c-0.002,0.034-0.005,0.091-0.005,0.126v0.426c0,0.035-0.028,0.063-0.063,0.063H6.094c-0.035,0-0.063-0.027-0.063-0.063v-0.825
		c0-0.034,0.028-0.063,0.063-0.063H6.214z"/>
	<path fill="#004C90" d="M7.898,9.942c-0.035,0-0.063-0.028-0.063-0.063V9.79c0-0.034,0.028-0.063,0.063-0.063h0.135
		c0.035,0,0.063,0.029,0.063,0.063v0.089c0,0.035-0.028,0.063-0.063,0.063H7.898z M8.033,10.09c0.035,0,0.063,0.028,0.063,0.063
		v0.825c0,0.035-0.028,0.063-0.063,0.063H7.898c-0.035,0-0.063-0.027-0.063-0.063v-0.825c0-0.034,0.028-0.063,0.063-0.063H8.033z"/>
	<path fill="#004C90" d="M9.117,10.919c-0.001,0-0.02,0.022-0.041,0.05c0,0-0.031,0.039-0.082,0.062
		c-0.049,0.022-0.105,0.034-0.168,0.034c-0.07,0-0.133-0.015-0.188-0.041c-0.054-0.028-0.098-0.065-0.133-0.112
		c-0.035-0.048-0.062-0.102-0.079-0.163C8.409,10.687,8.4,10.622,8.4,10.557c0-0.063,0.009-0.126,0.027-0.186
		c0.018-0.059,0.044-0.111,0.079-0.157c0.035-0.045,0.078-0.081,0.131-0.108c0.053-0.028,0.114-0.042,0.185-0.042
		c0.056,0,0.11,0.012,0.161,0.036s0.079,0.058,0.079,0.058c0.022,0.026,0.042,0.048,0.043,0.048s0.002-0.028,0.002-0.063V9.79
		c0-0.034,0.028-0.063,0.063-0.063h0.135c0.034,0,0.063,0.029,0.063,0.063v1.188c0,0.035-0.028,0.063-0.063,0.063H9.182
		c-0.034,0-0.063-0.027-0.063-0.061S9.119,10.919,9.117,10.919 M9.104,10.449c-0.008-0.036-0.021-0.068-0.038-0.096
		s-0.041-0.05-0.068-0.067c-0.028-0.018-0.064-0.025-0.107-0.025s-0.078,0.008-0.107,0.025c-0.03,0.018-0.054,0.04-0.072,0.068
		c-0.018,0.027-0.03,0.06-0.037,0.096c-0.009,0.036-0.013,0.074-0.013,0.114c0,0.036,0.005,0.073,0.013,0.11
		c0.009,0.036,0.022,0.069,0.041,0.098c0.02,0.029,0.043,0.053,0.072,0.07s0.063,0.026,0.104,0.026c0.043,0,0.079-0.009,0.107-0.025
		c0.029-0.018,0.053-0.04,0.069-0.069c0.018-0.028,0.029-0.062,0.037-0.098c0.007-0.037,0.011-0.075,0.011-0.114
		C9.115,10.522,9.111,10.485,9.104,10.449"/>
	<path fill="#004C90" d="M9.772,9.942c-0.034,0-0.063-0.028-0.063-0.063V9.79c0-0.034,0.029-0.063,0.063-0.063h0.136
		c0.034,0,0.063,0.029,0.063,0.063v0.089c0,0.035-0.028,0.063-0.063,0.063H9.772z M9.908,10.09c0.034,0,0.063,0.028,0.063,0.063
		v0.825c0,0.035-0.028,0.063-0.063,0.063H9.772c-0.034,0-0.063-0.027-0.063-0.063v-0.825c0-0.034,0.029-0.063,0.063-0.063H9.908z"/>
	<g>
		<defs>
			<path id="SVGID_1_" d="M4.225,6.246c0,3.057,0.607,3.021,3.814,3.021c3.207,0,3.737,0.035,3.737-3.021
				c0-1.999-0.544-3.619-3.776-3.619C4.794,2.627,4.225,4.247,4.225,6.246"/>
		</defs>
		<clipPath id="SVGID_2_">
			<use xlink:href="#SVGID_1_"  overflow="visible"/>
		</clipPath>
		<path clip-path="url(#SVGID_2_)" fill="#538130" d="M9.341,8.726c0,0-1.49-0.377-1.515,0.479
			c-0.024,0.857,1.271,1.918,1.271,1.918s1.559,1.292,3.473,0.979c0,0,0.928-0.087,0.612-1.003c0,0,2.116,0.763,1.481-0.167
			c0,0,2.412,0.635,3.198-0.091s-0.234-1.384-0.234-1.384s1.16,0.27,1.841-0.17c0.68-0.439,0.52-1.173-0.697-0.884
			c0,0,1.335-0.479,2.119-2.202c0.783-1.724,0.293-2.854-0.124-2.354S17.418,8.885,9.341,8.726"/>
		
			<path clip-path="url(#SVGID_2_)" fill="none" stroke="#211915" stroke-width="0.1" stroke-linecap="round" stroke-linejoin="round" stroke-miterlimit="10" d="
			M9.341,8.726c0,0-1.49-0.377-1.515,0.479c-0.024,0.857,1.271,1.918,1.271,1.918s1.559,1.292,3.473,0.979
			c0,0,0.928-0.087,0.612-1.003c0,0,2.116,0.763,1.481-0.167c0,0,2.412,0.635,3.198-0.091s-0.234-1.384-0.234-1.384
			s1.16,0.27,1.841-0.17c0.68-0.439,0.52-1.173-0.697-0.884c0,0,1.335-0.479,2.119-2.202c0.783-1.724,0.293-2.854-0.124-2.354
			S17.418,8.885,9.341,8.726z"/>
		<path clip-path="url(#SVGID_2_)" fill="#7CB93B" d="M5.243,14.902c0,0-0.006-0.12-1.857,2.224c0,0-0.419,0.461-0.104,0.368
			c0.316-0.093,1.649-1.022,1.649-1.022s-0.534,0.816-0.198,1.646c0,0,0.341,0.463,1.01-0.581s0.56-2.752,0.56-2.752L5.243,14.902z"
			/>
		
			<path clip-path="url(#SVGID_2_)" fill="none" stroke="#000000" stroke-width="0.1" stroke-linecap="round" stroke-linejoin="round" stroke-miterlimit="10" d="
			M5.243,14.902c0,0-0.006-0.12-1.857,2.224c0,0-0.419,0.461-0.104,0.368c0.316-0.093,1.649-1.022,1.649-1.022
			s-0.534,0.816-0.198,1.646c0,0,0.341,0.463,1.01-0.581s0.56-2.752,0.56-2.752L5.243,14.902z"/>
		<path clip-path="url(#SVGID_2_)" fill="#7CB93B" d="M5.236,14.445c0.069-0.291,0.173-0.575,0.32-0.821
			c0.128-0.215,0.231-0.429,0.373-0.636c0.362-0.531,0.499-1.178,0.433-1.818c-0.116-0.865-0.893-1.507-0.283-2.362
			c0.202-0.283,0.515-0.768,0.85-0.886C7.228,7.816,7.755,7.9,8.075,7.877l1.177,0.436L9.35,8.495c0,0,0.686,0.534,0.756,1.264
			c0.096,0.492,0.01,0.866-0.125,1.335c-0.076,0.264-0.206,0.489-0.239,0.772c-0.034,0.289-0.017,0.598,0.096,0.869
			c0.128,0.309,0.286,0.57,0.368,0.896c0.094,0.37,0.172,0.744,0.219,1.122c0.033,0.266,0.029,0.532,0.021,0.798
			c-0.007,0.26-0.092,0.506-0.151,0.757c-0.063,0.27-0.158,0.518-0.302,0.753c-0.102,0.166-0.197,0.433-0.377,0.521
			c0,0-0.729,0.52-1.373-0.169c0,0-0.288-0.619-0.218-1.167c0,0,0.141-0.083,0.246-0.251c0,0-0.271,0.479-0.9,0.422L7.389,15.7
			c0,0,0.154,1.896-0.911,2.065c-0.173,0.027-0.367,0.094-0.543,0.029c-0.188-0.068-0.321-0.331-0.402-0.507
			c-0.076-0.166-0.108-0.35-0.139-0.53c-0.089-0.522-0.292-1.091-0.259-1.619C5.148,14.913,5.181,14.677,5.236,14.445"/>
		
			<path clip-path="url(#SVGID_2_)" fill="none" stroke="#000000" stroke-width="0.1" stroke-linecap="round" stroke-linejoin="round" stroke-miterlimit="10" d="
			M5.236,14.445c0.069-0.291,0.173-0.575,0.32-0.821c0.128-0.215,0.231-0.429,0.373-0.636c0.362-0.531,0.499-1.178,0.433-1.818
			c-0.116-0.865-0.893-1.507-0.283-2.362c0.202-0.283,0.515-0.768,0.85-0.886C7.228,7.816,7.755,7.9,8.075,7.877l1.177,0.436
			L9.35,8.495c0,0,0.686,0.534,0.756,1.264c0.096,0.492,0.01,0.866-0.125,1.335c-0.076,0.264-0.206,0.489-0.239,0.772
			c-0.034,0.289-0.017,0.598,0.096,0.869c0.128,0.309,0.286,0.57,0.368,0.896c0.094,0.37,0.172,0.744,0.219,1.122
			c0.033,0.266,0.029,0.532,0.021,0.798c-0.007,0.26-0.092,0.506-0.151,0.757c-0.063,0.27-0.158,0.518-0.302,0.753
			c-0.102,0.166-0.197,0.433-0.377,0.521c0,0-0.729,0.52-1.373-0.169c0,0-0.288-0.619-0.218-1.167c0,0,0.141-0.083,0.246-0.251
			c0,0-0.271,0.479-0.9,0.422L7.389,15.7c0,0,0.154,1.896-0.911,2.065c-0.173,0.027-0.367,0.094-0.543,0.029
			c-0.188-0.068-0.321-0.331-0.402-0.507c-0.076-0.166-0.108-0.35-0.139-0.53c-0.089-0.522-0.292-1.091-0.259-1.619
			C5.148,14.913,5.181,14.677,5.236,14.445z"/>
		<path clip-path="url(#SVGID_2_)" fill="#538130" d="M5.265,9.589c0,0,0.675-1.354,1.33-0.822s0.615,2.179,0.615,2.179
			s-0.036,1.991-1.496,3.218c0,0-0.662,0.637-1.142-0.186c0,0-0.789,2.067-1.075,0.997c0,0-1.073,2.206-2.118,2.328
			c-1.046,0.121-0.882-1.063-0.882-1.063s-0.543,1.038-1.307,1.264c-0.764,0.227-1.209-0.364-0.211-1.087
			c0,0-1.214,0.689-3.002,0.169c-1.789-0.521-2.318-1.61-1.678-1.602C-5.06,14.993,0.206,15.717,5.265,9.589"/>
		
			<path clip-path="url(#SVGID_2_)" fill="none" stroke="#000000" stroke-width="0.1" stroke-linecap="round" stroke-linejoin="round" stroke-miterlimit="10" d="
			M5.265,9.589c0,0,0.675-1.354,1.33-0.822s0.615,2.179,0.615,2.179s-0.036,1.991-1.496,3.218c0,0-0.662,0.637-1.142-0.186
			c0,0-0.789,2.067-1.075,0.997c0,0-1.073,2.206-2.118,2.328c-1.046,0.121-0.882-1.063-0.882-1.063s-0.543,1.038-1.307,1.264
			c-0.764,0.227-1.209-0.364-0.211-1.087c0,0-1.214,0.689-3.002,0.169c-1.789-0.521-2.318-1.61-1.678-1.602
			C-5.06,14.993,0.206,15.717,5.265,9.589z"/>
	</g>
	<path fill="#7CB93B" d="M6.559,7.723c0,0-1.392,0.196-1.205,0.487c0,0,0.822,0.523,1.755-0.104c0,0-0.392,0.459-0.046,0.73
		c0,0,0.579,0.328,0.961-0.094c0,0,0.224-0.271,0.103-0.665c0,0,0.28,0.469,1.102,0.432c0,0,0.71-0.141,0.467-0.432
		c0,0-0.448-0.355-1.494-0.346L7.017,7.666L6.559,7.723z"/>
	<path fill="none" stroke="#000000" stroke-width="0.1" stroke-miterlimit="10" d="M6.559,7.723c0,0-1.392,0.196-1.205,0.487
		c0,0,0.822,0.523,1.755-0.104c0,0-0.392,0.459-0.046,0.73c0,0,0.579,0.328,0.961-0.094c0,0,0.224-0.271,0.103-0.665
		c0,0,0.28,0.469,1.102,0.432c0,0,0.71-0.141,0.467-0.432c0,0-0.448-0.355-1.494-0.346L7.017,7.666L6.559,7.723z"/>
	<path fill="#7CB93B" d="M8.434,2.572C8.146,2.341,7.191,1.677,6.003,1.94c0,0-0.124,0.036,0.106,0.089c0,0,0.422,0.07,0.669,0.283
		c0,0-0.599-0.106-1.146,0.229c0,0-0.141,0.141,0.159,0.105c0,0,0.435-0.149,0.702,0.071C5.513,3.155,4.832,4.12,4.832,5.241
		c0,1.531,1.271,2.771,2.839,2.771c1.568,0,2.839-1.24,2.839-2.771C10.51,3.969,9.631,2.897,8.434,2.572"/>
	<path fill="none" stroke="#000000" stroke-width="0.1" stroke-linecap="round" stroke-linejoin="round" stroke-miterlimit="10" d="
		M8.434,2.572C8.146,2.341,7.191,1.677,6.003,1.94c0,0-0.124,0.036,0.106,0.089c0,0,0.422,0.07,0.669,0.283
		c0,0-0.599-0.106-1.146,0.229c0,0-0.141,0.141,0.159,0.105c0,0,0.435-0.149,0.702,0.071C5.513,3.155,4.832,4.12,4.832,5.241
		c0,1.531,1.271,2.771,2.839,2.771c1.568,0,2.839-1.24,2.839-2.771C10.51,3.969,9.631,2.897,8.434,2.572z"/>
	<path d="M6.097,4.113c0,0-0.194-0.193-0.158-0.269c0,0,0.039-0.032,0.057,0.017c0,0,0.041,0.146,0.123,0.121
		c0,0,0.039-0.019,0.042-0.063c0,0-0.098-0.099-0.123-0.233c0,0-0.021-0.111,0.012-0.158c0,0,0.036-0.017,0.029,0.056
		c0,0,0.034,0.239,0.142,0.264c0,0,0.059-0.018,0.07-0.104c0,0-0.007-0.181,0.024-0.194c0,0,0.036-0.02,0.038,0.062
		c0,0-0.009,0.089,0.041,0.099l0.084,0.024c0,0-0.24,0.107-0.307,0.261L6.097,4.113z"/>
	<path fill="#FFFFFF" d="M7.098,4.472c0,0.411-0.237,0.744-0.53,0.744s-0.53-0.333-0.53-0.744s0.237-0.744,0.53-0.744
		S7.098,4.061,7.098,4.472"/>
	<ellipse fill="none" stroke="#000000" stroke-width="0.1" stroke-miterlimit="10" cx="6.568" cy="4.472" rx="0.53" ry="0.744"/>
	<path fill="#86643E" d="M6.927,4.66c0,0.271-0.158,0.492-0.352,0.492c-0.195,0-0.352-0.221-0.352-0.492
		c0-0.273,0.157-0.494,0.352-0.494C6.769,4.166,6.927,4.387,6.927,4.66"/>
	<path fill="#251F1F" d="M6.849,4.722c0,0.196-0.113,0.355-0.253,0.355S6.343,4.918,6.343,4.722c0-0.195,0.113-0.354,0.253-0.354
		S6.849,4.526,6.849,4.722"/>
	<path fill="#FFFFFF" d="M6.723,4.848c0,0.088-0.05,0.159-0.114,0.159c-0.063,0-0.114-0.071-0.114-0.159
		c0-0.089,0.051-0.161,0.114-0.161C6.673,4.687,6.723,4.759,6.723,4.848"/>
	<path d="M6.25,3.353c0,0,0.188-0.129,0.375-0.076c0,0,0.161,0.044,0.166-0.007c0,0,0.007-0.042-0.043-0.068c0,0-0.09-0.063-0.336,0
		c0,0-0.094,0.006-0.234,0.104c0,0-0.055,0.045,0.009,0.071C6.187,3.377,6.228,3.372,6.25,3.353"/>
	<path d="M9.505,3.353c0,0-0.188-0.129-0.374-0.076c0,0-0.162,0.044-0.166-0.007c0,0-0.008-0.042,0.043-0.068
		c0,0,0.09-0.063,0.336,0c0,0,0.094,0.006,0.233,0.104c0,0,0.056,0.045-0.009,0.071C9.568,3.377,9.527,3.372,9.505,3.353"/>
	<path fill="#FFFFFF" d="M9.689,4.464c0,0.415-0.24,0.752-0.535,0.752c-0.297,0-0.536-0.337-0.536-0.752
		c0-0.414,0.239-0.751,0.536-0.751C9.449,3.713,9.689,4.05,9.689,4.464"/>
	<ellipse fill="none" stroke="#000000" stroke-width="0.1" stroke-miterlimit="10" cx="9.154" cy="4.464" rx="0.536" ry="0.752"/>
	<path fill="#86643E" d="M9.517,4.654c0,0.274-0.159,0.498-0.355,0.498S8.805,4.929,8.805,4.654c0-0.276,0.16-0.499,0.356-0.499
		S9.517,4.378,9.517,4.654"/>
	<path fill="#251F1F" d="M9.438,4.717c0,0.197-0.115,0.358-0.256,0.358S8.926,4.914,8.926,4.717c0-0.198,0.115-0.358,0.256-0.358
		S9.438,4.519,9.438,4.717"/>
	<path fill="#FFFFFF" d="M9.311,4.844c0,0.089-0.051,0.161-0.115,0.161c-0.063,0-0.115-0.072-0.115-0.161
		c0-0.09,0.053-0.162,0.115-0.162C9.26,4.682,9.311,4.754,9.311,4.844"/>
	<path d="M9.645,4.151c0,0,0.201-0.203,0.166-0.278c0,0-0.039-0.031-0.057,0.018c0,0-0.041,0.146-0.123,0.12
		c0,0-0.039-0.019-0.042-0.063c0,0,0.099-0.1,0.122-0.234c0,0,0.021-0.111-0.012-0.158c0,0-0.035-0.017-0.029,0.056
		c0,0-0.033,0.239-0.142,0.264c0,0-0.059-0.017-0.069-0.103c0,0,0.008-0.182-0.024-0.195c0,0-0.035-0.019-0.038,0.063
		c0,0,0.009,0.088-0.041,0.098L9.316,3.75c0,0,0.191,0.101,0.258,0.254L9.645,4.151z"/>
	<path fill="#FFFFFF" d="M6.358,2.321c0,0-0.188,0.07-0.357,0.126c-0.169,0.055-0.041,0.1,0.038,0.11
		c0.079,0.012,0.164,0.038,0.164,0.038S6.004,2.585,5.838,2.628C5.672,2.672,5.623,2.623,5.616,2.617S5.614,2.557,5.653,2.534
		C5.692,2.513,5.916,2.359,6.358,2.321"/>
	<path fill="#FFFFFF" d="M7.058,1.945c0,0-0.344-0.03-0.479,0.025c-0.135,0.055-0.053,0.138,0.01,0.187
		c0.063,0.048,0.132,0.108,0.132,0.108S6.485,2.106,6.105,2.027c0,0-0.214-0.06-0.068-0.092C6.182,1.903,6.39,1.888,6.566,1.889
		C6.742,1.89,7.025,1.93,7.058,1.945"/>
	<path fill="none" stroke="#000000" stroke-width="0.1" stroke-linecap="round" stroke-linejoin="round" stroke-miterlimit="10" d="
		M8.434,2.572C8.146,2.341,7.191,1.677,6.003,1.94c0,0-0.124,0.036,0.106,0.089c0,0,0.422,0.07,0.669,0.283
		c0,0-0.599-0.106-1.146,0.229c0,0-0.141,0.141,0.159,0.105c0,0,0.435-0.149,0.702,0.071C5.513,3.155,4.832,4.12,4.832,5.241
		c0,1.531,1.271,2.771,2.839,2.771c1.568,0,2.839-1.24,2.839-2.771C10.51,3.969,9.631,2.897,8.434,2.572z"/>
	<path fill="#FCD079" d="M7.21,7.123c0,0,0.26,0.448,0.86,0.61c0,0,0.607,0.188,0.857-0.217c0,0,0.234-0.36-0.008-0.394
		C8.65,7.085,7.833,7.123,7.21,7.123"/>
	<path fill="none" stroke="#000000" stroke-width="0.1" stroke-linecap="round" stroke-linejoin="round" stroke-miterlimit="10" d="
		M7.21,7.123c0,0,0.26,0.448,0.86,0.61c0,0,0.607,0.188,0.857-0.217c0,0,0.234-0.36-0.008-0.394C8.65,7.085,7.833,7.123,7.21,7.123z
		"/>
	<path fill="#86643E" d="M8.828,7.178c-0.014,0.084-0.09,0.341-0.217,0.377c-0.132,0.037-0.384,0.013-0.57-0.053
		c-0.186-0.066-0.454-0.244-0.564-0.34C7.4,7.097,7.467,7.11,7.479,7.041c0.029-0.171,0.353-0.26,0.726-0.197
		C8.576,6.906,8.857,7.007,8.828,7.178"/>
	<path fill="none" stroke="#000000" stroke-width="0.1" stroke-miterlimit="10" d="M8.828,7.178
		c-0.014,0.084-0.09,0.341-0.217,0.377c-0.132,0.037-0.384,0.013-0.57-0.053c-0.186-0.066-0.454-0.244-0.564-0.34
		C7.4,7.097,7.467,7.11,7.479,7.041c0.029-0.171,0.353-0.26,0.726-0.197C8.576,6.906,8.857,7.007,8.828,7.178z"/>
	<path fill="#FCD079" d="M6.867,6.979c0,0,0.182,0,0.266-0.447c0,0,0.238-0.785,0.693-1.025c0,0,0.364-0.2,0.806,0.114
		c0,0,0.314,0.229,0.482,0.728c0,0,0.057,0.241,0.28,0.437c0,0,0.154,0.143-0.126,0.298c0,0-0.453,0.134-0.983,0.145
		C7.773,7.238,7.188,7.126,6.867,6.979"/>
	<path fill="none" stroke="#000000" stroke-width="0.1" stroke-linecap="round" stroke-linejoin="round" stroke-miterlimit="10" d="
		M6.867,6.979c0,0,0.182,0,0.266-0.447c0,0,0.238-0.785,0.693-1.025c0,0,0.364-0.2,0.806,0.114c0,0,0.314,0.229,0.482,0.728
		c0,0,0.057,0.241,0.28,0.437c0,0,0.154,0.143-0.126,0.298c0,0-0.453,0.134-0.983,0.145C7.773,7.238,7.188,7.126,6.867,6.979z"/>
	<path d="M6.183,5.389c0.042-0.048,0.093-0.086,0.149-0.116C6.36,5.258,6.39,5.245,6.421,5.235s0.063-0.017,0.095-0.021
		c0.065-0.007,0.132,0.001,0.192,0.024c0.061,0.024,0.113,0.064,0.153,0.112C6.807,5.32,6.752,5.293,6.695,5.279
		C6.667,5.271,6.638,5.267,6.608,5.265C6.58,5.263,6.551,5.263,6.521,5.267C6.463,5.272,6.405,5.288,6.349,5.31
		S6.238,5.357,6.183,5.389"/>
	<path d="M9.5,5.34C9.445,5.309,9.389,5.285,9.332,5.271c-0.016-0.003-0.029-0.008-0.044-0.01S9.26,5.256,9.244,5.254
		c-0.014,0-0.029-0.002-0.043-0.002c-0.016,0-0.029,0.001-0.044,0.002H9.146L9.135,5.255L9.113,5.258L9.092,5.261
		C9.085,5.263,9.078,5.265,9.07,5.267C9.057,5.271,9.042,5.273,9.027,5.277C9.014,5.282,9,5.288,8.986,5.292
		C8.979,5.295,8.972,5.297,8.965,5.3C8.958,5.304,8.951,5.307,8.944,5.31l-0.041,0.02C8.877,5.344,8.85,5.36,8.822,5.373
		c0.021-0.022,0.043-0.045,0.066-0.065L8.928,5.28c0.006-0.005,0.014-0.009,0.02-0.014c0.008-0.004,0.014-0.008,0.021-0.011
		c0.014-0.008,0.029-0.015,0.043-0.021c0.016-0.006,0.031-0.011,0.047-0.016c0.007-0.003,0.015-0.005,0.023-0.007l0.023-0.005
		l0.023-0.004l0.013-0.002h0.013c0.064-0.005,0.131,0.006,0.189,0.03C9.404,5.256,9.459,5.292,9.5,5.34"/>
</g>
</svg>
